<?xml version="1.0" encoding="utf-8"?>
<!-- Generator: Adobe Illustrator 25.2.1, SVG Export Plug-In . SVG Version: 6.00 Build 0)  -->
<svg version="1.1" id="Layer_1" xmlns="http://www.w3.org/2000/svg" xmlns:xlink="http://www.w3.org/1999/xlink" x="0px" y="0px"
	 viewBox="0 0 789.73 162.81" style="enable-background:new 0 0 789.73 162.81;" xml:space="preserve">
<style type="text/css">
	.st0{fill:#346B9E;}
	path{fill:#346B9E;}
</style>
<g>
	<g>
		<path d="M166.34,99.83h-22.57V48.27h20.06c3.49,0,6.5,0.42,9.04,1.25c2.53,0.84,4.44,1.97,5.72,3.39c2.31,2.66,3.47,5.66,3.47,9
			c0,4.03-1.3,7.03-3.91,9c-0.89,0.69-1.5,1.12-1.84,1.29c-0.34,0.17-0.96,0.46-1.84,0.85c3.2,0.69,5.74,2.13,7.63,4.32
			c1.89,2.19,2.84,4.91,2.84,8.15c0,3.59-1.23,6.76-3.69,9.52C178.39,98.24,173.43,99.83,166.34,99.83z M155.28,69.15h5.46
			c3.2,0,5.57-0.34,7.12-1.03c1.55-0.69,2.32-2.18,2.32-4.46c0-2.29-0.71-3.8-2.14-4.54c-1.43-0.74-3.84-1.11-7.23-1.11h-5.53V69.15
			z M155.28,90.1h7.89c3.29,0,5.77-0.41,7.41-1.22c1.65-0.81,2.47-2.41,2.47-4.79c0-2.38-0.87-3.96-2.62-4.72
			c-1.75-0.76-4.54-1.14-8.37-1.14h-6.79V90.1z"/>
		<path d="M236.42,65.39c0,8.26-3.27,13.6-9.81,16.01l13.06,18.44H225.5l-11.43-16.45h-7.97v16.45H194.6V48.27h19.55
			c8.02,0,13.73,1.35,17.15,4.06C234.71,55.03,236.42,59.39,236.42,65.39z M222.55,71.51c1.43-1.28,2.14-3.31,2.14-6.09
			c0-2.78-0.74-4.68-2.21-5.72c-1.48-1.03-4.06-1.55-7.75-1.55h-8.63v15.27h8.41C218.45,73.43,221.13,72.79,222.55,71.51z"/>
		<path d="M248.22,48.27h11.51v21.17l19.47-21.17h14.24l-20.51,22.79c1.77,2.46,5.04,7.04,9.81,13.76
			c4.77,6.71,8.34,11.72,10.7,15.01h-13.43l-15.12-20.36l-5.16,5.75v14.61h-11.51V48.27z"/>
		<path d="M339.99,55.02c4.92,4.5,7.38,10.76,7.38,18.77c0,8.02-2.4,14.36-7.19,19.03c-4.79,4.67-12.11,7.01-21.95,7.01H300.6V48.27
			h18.22C328.01,48.27,335.07,50.52,339.99,55.02z M331.54,85.67c2.83-2.66,4.24-6.52,4.24-11.58c0-5.06-1.41-8.96-4.24-11.69
			c-2.83-2.73-7.17-4.09-13.02-4.09h-6.42v31.35h7.3C324.67,89.65,328.71,88.33,331.54,85.67z"/>
		<path d="M392.58,99.83l-4.79-11.14h-21.61l-4.79,11.14h-12.24l22.28-51.56h11.14l22.28,51.56H392.58z M377.02,63.62l-6.49,14.97
			h12.91L377.02,63.62z"/>
		<path d="M410.8,48.27h11.51v21.17l19.47-21.17h14.24l-20.51,22.79c1.77,2.46,5.04,7.04,9.81,13.76
			c4.77,6.71,8.34,11.72,10.7,15.01H442.6l-15.12-20.36l-5.16,5.75v14.61H410.8V48.27z"/>
		<path d="M519.38,99.83l-4.79-11.14h-21.61l-4.79,11.14h-12.24l22.28-51.56h11.14l22.28,51.56H519.38z M503.82,63.62l-6.49,14.97
			h12.91L503.82,63.62z"/>
		<path d="M537.6,99.83V48.27h11.51v41.31h21.98v10.25H537.6z"/>
		<path d="M625.68,67.38l-13.94,28.18h-6.86l-13.87-28.18v32.46H579.5V48.27h15.56l13.28,28.33l13.35-28.33h15.49v51.56h-11.51
			V67.38z"/>
		<path d="M687.05,48.27v10.25h-25.67v10.62h23.09v9.81h-23.09v10.7h26.48v10.18h-37.99V48.27H687.05z"/>
		<path d="M739.94,65.39c0,8.26-3.27,13.6-9.81,16.01l13.06,18.44h-14.16l-11.43-16.45h-7.97v16.45h-11.51V48.27h19.55
			c8.02,0,13.73,1.35,17.15,4.06C738.23,55.03,739.94,59.39,739.94,65.39z M726.07,71.51c1.43-1.28,2.14-3.31,2.14-6.09
			c0-2.78-0.74-4.68-2.21-5.72c-1.48-1.03-4.06-1.55-7.75-1.55h-8.63v15.27h8.41C721.97,73.43,724.65,72.79,726.07,71.51z"/>
		<path d="M788.92,48.27v10.25h-25.67v10.62h23.09v9.81h-23.09v10.7h26.48v10.18h-37.99V48.27H788.92z"/>
	</g>
	<g>
		<path d="M188.84,128.61h5.63v33.34h-5.63V128.61z"/>
		<path d="M228.72,128.61h5.63v33.34h-6.1l-18.89-24.32v24.32h-5.63v-33.34h5.63l19.36,24.9V128.61z"/>
		<path d="M253.68,133c-1.64,0-2.98,0.33-4.03,1c-1.05,0.67-1.57,1.68-1.57,3.03c0,1.35,0.52,2.38,1.57,3.1
			c1.05,0.72,3.28,1.49,6.7,2.31c3.42,0.83,5.99,1.99,7.73,3.48c1.73,1.49,2.6,3.7,2.6,6.61s-1.1,5.27-3.29,7.08
			c-2.19,1.81-5.07,2.72-8.63,2.72c-5.22,0-9.84-1.8-13.88-5.39l3.53-4.24c3.37,2.93,6.87,4.39,10.49,4.39
			c1.81,0,3.25-0.39,4.32-1.17c1.06-0.78,1.6-1.81,1.6-3.1c0-1.29-0.5-2.29-1.5-3c-1-0.72-2.73-1.37-5.17-1.96
			c-2.45-0.59-4.31-1.13-5.58-1.62c-1.27-0.49-2.4-1.14-3.39-1.93c-1.97-1.49-2.96-3.78-2.96-6.87c0-3.08,1.12-5.46,3.36-7.13
			c2.24-1.67,5.02-2.5,8.32-2.5c2.13,0,4.25,0.35,6.34,1.05c2.1,0.7,3.91,1.69,5.44,2.96l-3,4.24c-0.99-0.89-2.32-1.62-4.01-2.19
			C256.98,133.28,255.32,133,253.68,133z"/>
		<path d="M296.16,131.52c2.32,1.94,3.48,4.93,3.48,8.97c0,4.04-1.19,7-3.55,8.87c-2.37,1.88-6,2.81-10.9,2.81h-5.91v9.78h-5.63
			v-33.34h11.45C290.15,128.61,293.84,129.58,296.16,131.52z M292.17,145.28c1.13-1.19,1.69-2.94,1.69-5.25
			c0-2.31-0.72-3.93-2.15-4.89c-1.43-0.95-3.67-1.43-6.73-1.43h-5.72v13.35h6.53C288.92,147.07,291.05,146.47,292.17,145.28z"/>
		<path d="M329.69,128.61v5.29H311.9v8.82h15.98v5.01H311.9v8.92h18.36v5.29h-23.99v-33.34H329.69z"/>
		<path d="M352.67,156.84c1.94,0,3.61-0.33,5.01-0.98c1.4-0.65,2.86-1.69,4.39-3.12l3.62,3.72c-3.53,3.91-7.81,5.87-12.85,5.87
			c-5.04,0-9.22-1.62-12.54-4.86c-3.32-3.24-4.98-7.35-4.98-12.31c0-4.96,1.69-9.09,5.08-12.4c3.39-3.31,7.66-4.96,12.83-4.96
			c5.17,0,9.48,1.91,12.95,5.72l-3.58,3.91c-1.59-1.53-3.09-2.59-4.51-3.2c-1.42-0.6-3.08-0.91-4.98-0.91
			c-3.37,0-6.2,1.09-8.49,3.27c-2.29,2.18-3.43,4.96-3.43,8.35c0,3.39,1.14,6.22,3.41,8.49
			C346.86,155.71,349.56,156.84,352.67,156.84z"/>
		<path d="M385.15,133.76v28.19h-5.63v-28.19h-10.11v-5.15h25.85v5.15H385.15z"/>
		<path d="M401.37,128.61H407v33.34h-5.63V128.61z"/>
		<path d="M439.67,128.61v5.29h-17.79v8.82h15.98v5.01h-15.98v8.92h18.36v5.29h-23.99v-33.34H439.67z"/>
		<path d="M469.48,162.33c-3.12,0-5.77-0.87-7.96-2.6c-2.19-1.73-3.29-4.11-3.29-7.13c0-3.59,2.61-6.79,7.82-9.59
			c-1.3-1.49-2.22-2.72-2.74-3.67c-0.52-0.95-0.79-2.16-0.79-3.62c0-2.54,0.94-4.5,2.81-5.87c1.88-1.37,4.09-2.05,6.63-2.05
			c2.54,0,4.71,0.65,6.49,1.96c1.78,1.3,2.67,3.13,2.67,5.48c0,3.15-2.54,6.12-7.63,8.92c2.54,3.12,4.61,5.5,6.2,7.15
			c0.99-1.46,1.75-3.16,2.29-5.1l3.91,2.77c-0.83,2.19-1.76,4.12-2.81,5.77c1.27,1.3,2.89,2.88,4.86,4.72l-3.58,3.34l-4.39-4.34
			C477.17,161.04,473.68,162.33,469.48,162.33z M465.33,156.34c1.21,0.91,2.81,1.36,4.82,1.36c2,0,4.13-0.92,6.39-2.77
			c-3.21-3.37-5.76-6.2-7.63-8.49c-3.59,1.94-5.39,4.07-5.39,6.39C463.52,154.27,464.12,155.44,465.33,156.34z M471.93,132.04
			c-1.07,0-2.02,0.33-2.86,1c-0.84,0.67-1.26,1.45-1.26,2.34c0,0.89,0.21,1.69,0.64,2.41c0.43,0.72,1.17,1.71,2.22,2.98
			c3.59-1.78,5.39-3.43,5.39-4.96c0-1.27-0.42-2.22-1.26-2.84C473.95,132.35,473,132.04,471.93,132.04z"/>
		<path d="M511.4,154.36l-3.34,7.58h-6.01l14.69-33.34h6.01l14.69,33.34h-6.01l-3.34-7.58H511.4z M525.8,149.17l-6.06-13.74
			l-6.06,13.74H525.8z"/>
		<path d="M567.3,132.97c3.21,2.91,4.82,6.96,4.82,12.14c0,5.18-1.56,9.28-4.67,12.31c-3.12,3.02-7.89,4.53-14.31,4.53h-11.07
			v-33.34h11.45C559.49,128.61,564.09,130.06,567.3,132.97z M566.44,145.25c0-7.63-4.37-11.45-13.12-11.45h-5.63v22.85h6.25
			c4.04,0,7.13-0.96,9.28-2.89C565.37,151.84,566.44,149.01,566.44,145.25z"/>
		<path d="M594.58,161.95h-6.3l-13.4-33.34h6.3l10.25,24.9l10.25-24.9h6.3L594.58,161.95z"/>
		<path d="M612.75,128.61h5.63v33.34h-5.63V128.61z"/>
		<path d="M651.05,128.61v5.29h-17.79v8.82h15.98v5.01h-15.98v8.92h18.36v5.29h-23.99v-33.34H651.05z"/>
		<path d="M668.91,133c-1.64,0-2.98,0.33-4.03,1c-1.05,0.67-1.57,1.68-1.57,3.03c0,1.35,0.52,2.38,1.57,3.1
			c1.05,0.72,3.28,1.49,6.7,2.31c3.42,0.83,5.99,1.99,7.73,3.48c1.73,1.49,2.6,3.7,2.6,6.61s-1.1,5.27-3.29,7.08
			c-2.19,1.81-5.07,2.72-8.63,2.72c-5.22,0-9.84-1.8-13.88-5.39l3.53-4.24c3.37,2.93,6.87,4.39,10.49,4.39
			c1.81,0,3.25-0.39,4.32-1.17c1.06-0.78,1.6-1.81,1.6-3.1c0-1.29-0.5-2.29-1.5-3c-1-0.72-2.73-1.37-5.17-1.96
			c-2.45-0.59-4.31-1.13-5.58-1.62c-1.27-0.49-2.4-1.14-3.39-1.93c-1.97-1.49-2.96-3.78-2.96-6.87c0-3.08,1.12-5.46,3.36-7.13
			c2.24-1.67,5.02-2.5,8.32-2.5c2.13,0,4.25,0.35,6.34,1.05c2.1,0.7,3.91,1.69,5.44,2.96l-3,4.24c-0.99-0.89-2.32-1.62-4.01-2.19
			C672.21,133.28,670.55,133,668.91,133z"/>
	</g>
	<polygon class="st0" points="161.26,0 125.06,26.43 88.87,0 0,64.9 0,114.26 21.84,114.26 21.84,76 88.87,27.04 106.54,39.96 
		72.39,64.9 72.39,114.26 94.23,114.26 94.23,76 161.26,27.04 198.25,27.02 	"/>
</g>
</svg>
